:version 1.10
:name ASF
:units
  mass 1
  length 1
  angle deg
:documentation
  ASF file generated by Kaydara
:root
  axis xyz
  order  tx ty tz rx ry rz
  position 0 0 0
  orientation 0 0 0
:bonedata
  begin
    id 1
    name SpineDummy
    direction 0.999998 -0.00179978 1.38929e-006
    length 3.60008
    axis 0 0 0 xyz
  end
  begin
    id 2
    name Spine
    direction 0.964365 0.262802 0.0305839
    length 8.13928
    axis 1.33928 -1.75354 15.2838 xyz
    dof rx ry rz
  end
  begin
    id 3
    name Spine1
    direction 0.811168 0.572065 0.12144
    length 7.14954
    axis 2.2224 -6.9761 35.2157 xyz
    dof rx ry rz
  end
  begin
    id 4
    name Neck
    direction 0 0 0
    length 0
    axis 2.2224 -6.9761 35.2157 xyz
    dof rx ry rz
  end
  begin
    id 5
    name HeadDummy
    direction 0.810939 0.572387 0.121455
    length 3.55534
    axis 2.2224 -6.9761 35.2157 xyz
  end
  begin
    id 6
    name Head
    direction 0.998226 -0.000232542 0.0595419
    length 7.35666
    axis -3.03688 -3.41352 -0.0133467 xyz
    dof rx ry rz
  end
  begin
    id 7
    name R_ClavicleDummy
    direction 0.531669 -0.194489 -0.824319
    length 2.49392
    axis 2.2224 -6.9761 35.2157 xyz
  end
  begin
    id 8
    name R_Clavicle
    direction -0.155119 0.0480802 -0.986725
    length 4.485
    axis -54.2764 80.6538 162.779 xyz
    dof rx ry rz
  end
  begin
    id 9
    name R_UpperArm
    direction -0.955567 0.200068 -0.216484
    length 10.1122
    axis -72.9943 12.5026 168.175 xyz
    dof rx ry rz
  end
  begin
    id 10
    name R_Forearm
    direction -0.61433 0.385743 0.688332
    length 9.39148
    axis -117.015 -43.4982 147.875 xyz
    dof rx ry rz
  end
  begin
    id 11
    name R_Hand
    direction -0.699429 0.0170333 0.714499
    length 3.66324
    axis -45.0303 -36.7097 175.478 xyz
    dof rx ry rz
  end
  begin
    id 12
    name L_ClavicleDummy
    direction 0.40287 -0.36502 0.839319
    length 2.49392
    axis 2.2224 -6.9761 35.2157 xyz
  end
  begin
    id 13
    name L_Clavicle
    direction -0.231271 -0.0726419 0.970174
    length 4.485
    axis 18.4357 -75.9711 -162.563 xyz
    dof rx ry rz
  end
  begin
    id 14
    name L_UpperArm
    direction -0.917494 0.144359 0.370629
    length 10.1122
    axis 56.0417 -21.7544 171.058 xyz
    dof rx ry rz
  end
  begin
    id 15
    name L_Forearm
    direction -0.496786 0.615074 -0.612281
    length 9.39148
    axis 89.8094 37.7546 128.927 xyz
    dof rx ry rz
  end
  begin
    id 16
    name L_Hand
    direction -0.409932 0.64962 -0.640274
    length 3.66324
    axis -0.424369 32.133 128.52 xyz
    dof rx ry rz
  end
  begin
    id 17
    name L_ThighDummy
    direction -1.84081e-006 1.87549e-006 1
    length 3.13049
    axis 0 0 0 xyz
  end
  begin
    id 18
    name L_Thigh
    direction -0.947739 0.307978 0.083308
    length 17.9961
    axis 173.219 -4.77873 161.998 xyz
    dof rx ry rz
  end
  begin
    id 19
    name L_Calf
    direction -0.728814 -0.684427 0.0197583
    length 13.3367
    axis 167.331 -1.13214 -136.799 xyz
    dof rx ry rz
  end
  begin
    id 20
    name L_Foot
    direction -0.9028 0.418719 0.0981191
    length 5.8674
    axis 163.436 11.5135 -155.37 xyz
    dof rx ry rz
  end
  begin
    id 21
    name L_Toe0
    direction -0.35341 0.886259 0.299411
    length 4.75286
    axis 169.316 -17.4222 111.74 xyz
    dof rx ry rz
  end
  begin
    id 22
    name R_ThighDummy
    direction 9.32778e-007 -8.82053e-007 -1
    length 3.13049
    axis 0 0 0 xyz
  end
  begin
    id 23
    name R_Thigh
    direction -0.925064 0.37528 -0.0585023
    length 17.9961
    axis -178.698 3.35385 157.919 xyz
    dof rx ry rz
  end
  begin
    id 24
    name R_Calf
    direction -0.68969 -0.718776 -0.0876886
    length 13.3367
    axis -160.504 5.03065 -133.817 xyz
    dof rx ry rz
  end
  begin
    id 25
    name R_Foot
    direction -0.857405 0.418858 -0.299022
    length 5.8674
    axis -161.328 4.38911 -154.413 xyz
    dof rx ry rz
  end
  begin
    id 26
    name R_Toe0
    direction -0.100745 0.952789 -0.286433
    length 4.75286
    axis 171.683 16.6445 96.0359 xyz
    dof rx ry rz
  end
:hierarchy
  begin
    root SpineDummy L_ThighDummy R_ThighDummy
    SpineDummy Spine
    Spine Spine1
    Spine1 Neck
    Neck HeadDummy R_ClavicleDummy L_ClavicleDummy
    HeadDummy Head
    R_ClavicleDummy R_Clavicle
    R_Clavicle R_UpperArm
    R_UpperArm R_Forearm
    R_Forearm R_Hand
    L_ClavicleDummy L_Clavicle
    L_Clavicle L_UpperArm
    L_UpperArm L_Forearm
    L_Forearm L_Hand
    L_ThighDummy L_Thigh
    L_Thigh L_Calf
    L_Calf L_Foot
    L_Foot L_Toe0
    R_ThighDummy R_Thigh
    R_Thigh R_Calf
    R_Calf R_Foot
    R_Foot R_Toe0
  end

:SAMPLES-PER-SECOND 30
:FULLY-SPECIFIED
:DEGREES
149
root  -1.34533 30.0199 55.8399 104.434 17.0182 103.085
Spine  -1.30945 0.508014 3.68069
Spine1  -2.53802 -7.67073 16.6016
Neck  3.97569e-016 0 -2.38542e-015
Head  7.80153 -3.43817 8.24997
R_Clavicle  0.243654 -12.1472 0.204731
R_UpperArm  17.6343 6.7581 13.9651
R_Forearm  16.7689 -22.3069 19.8358
R_Hand  -0.618446 8.7808 -16.2402
L_Clavicle  -0.284098 12.7441 -2.51808
L_UpperArm  -6.43932 5.58925 18.6304
L_Forearm  0.682159 24.7589 32.1787
L_Hand  -0.345214 2.35139 -4.81676
L_Thigh  -6.32361 -15.0006 -0.209363
L_Calf  3.13401 -1.12495 8.63255
L_Foot  4.52534 21.766 -1.90608
L_Toe0  0.505156 0.034446 -6.1361
R_Thigh  7.40671 -3.776 -2.69958
R_Calf  4.82496 -10.0543 -33.3512
R_Foot  1.69448 6.13809 1.58589
R_Toe0  -1.78853 -0.272788 -17.3235
150
root  -1.42361 30.5173 56.242 102.406 16.7405 103.271
Spine  0.0227473 0.300178 2.58105
Spine1  -1.15579 -8.01821 12.9363
Neck  3.97569e-016 0 -2.38542e-015
Head  7.45814 -4.02964 14.3289
R_Clavicle  0.239246 -12.9238 -0.0072434
R_UpperArm  16.7679 5.52683 14.1769
R_Forearm  16.8213 -21.9315 19.5084
R_Hand  -0.0597081 7.93269 -11.6055
L_Clavicle  -0.291366 12.9924 -2.7316
L_UpperArm  -2.59155 7.20018 19.8826
L_Forearm  -1.54383 25.2994 33.0831
L_Hand  -0.092209 3.20574 -1.06564
L_Thigh  -5.71017 -14.922 -1.91806
L_Calf  2.32439 -1.49031 11.3275
L_Foot  3.7669 20.1731 -2.98624
L_Toe0  0.505156 0.034446 -6.1361
R_Thigh  4.53254 -4.27342 -6.76153
R_Calf  6.80574 -8.09597 -26.1937
R_Foot  1.04657 4.39918 3.14565
R_Toe0  -1.82229 -0.272877 -17.3428
151
root  -1.51896 31.0305 56.5877 100.126 16.172 103.202
Spine  1.3931 0.986233 0.821578
Spine1  0.0573623 -8.95377 9.90751
Neck  3.97569e-016 0 -2.38542e-015
Head  7.77353 -4.80316 19.5854
R_Clavicle  0.256507 -13.9297 -0.0335556
R_UpperArm  15.722 4.45517 14.2982
R_Forearm  17.7239 -21.0535 18.6253
R_Hand  0.25997 7.52484 -8.80649
L_Clavicle  -0.329885 13.7094 -2.71774
L_UpperArm  -2.04752 8.82554 22.0652
L_Forearm  -3.82475 25.4134 33.2755
L_Hand  0.214511 3.57917 2.8005
L_Thigh  -6.0969 -14.3631 -3.61947
L_Calf  2.36809 -1.96032 14.8645
L_Foot  3.26532 18.8207 -3.57947
L_Toe0  0.505156 0.034446 -6.1361
R_Thigh  1.27022 -5.42136 -11.2389
R_Calf  8.84068 -5.06156 -15.9967
R_Foot  0.588009 3.22102 4.06845
R_Toe0  -1.67256 -0.255788 -17.2558
152
root  -1.60398 31.4736 56.8571 97.4506 15.7341 103.139
Spine  2.78832 2.13541 -0.731381
Spine1  1.31765 -10.3285 7.05204
Neck  3.97569e-016 0 -2.38542e-015
Head  7.96305 -5.74955 23.9752
R_Clavicle  0.267486 -14.0127 0.0911317
R_UpperArm  14.8563 2.61197 13.5892
R_Forearm  18.0496 -20.0276 17.6012
R_Hand  0.130915 7.38745 -9.72277
L_Clavicle  -0.357696 14.1148 -2.34624
L_UpperArm  -2.75182 10.6609 24.4073
L_Forearm  -5.02738 25.3195 33.1156
L_Hand  0.315008 3.64988 4.03644
L_Thigh  -8.25409 -13.4396 -5.72063
L_Calf  2.73133 -2.54944 19.3776
L_Foot  2.92703 19.1459 -4.69808
L_Toe0  0.505156 0.034446 -6.1361
R_Thigh  -2.41088 -7.35316 -16.0266
R_Calf  9.84645 -1.21468 -3.85269
R_Foot  0.201601 2.27435 4.80607
R_Toe0  1.39787 -0.422178 -15.5354
153
root  -1.70302 31.7836 57.0156 94.1799 15.3713 102.778
Spine  4.28171 3.58243 -1.27744
Spine1  2.88525 -11.6777 3.19982
Neck  3.97569e-016 0 -2.38542e-015
Head  7.85966 -6.64384 27.3315
R_Clavicle  0.283358 -14.0533 0.290837
R_UpperArm  12.9138 1.00533 12.4113
R_Forearm  19.0623 -19.7246 17.3031
R_Hand  -0.278358 6.8825 -12.705
L_Clavicle  -0.397409 14.8229 -1.97771
L_UpperArm  -3.67386 12.2423 27.1693
L_Forearm  -5.76626 25.1641 32.853
L_Hand  0.216645 3.73499 2.79885
L_Thigh  -11.3068 -12.1706 -7.38893
L_Calf  3.30375 -3.09682 23.4956
L_Foot  2.7804 19.9227 -5.52268
L_Toe0  0.505156 0.034446 -6.1361
R_Thigh  -7.14607 -9.04326 -20.5624
R_Calf  6.99623 2.49817 7.68654
R_Foot  0.286775 3.23973 7.77091
R_Toe0  6.8478 -0.900547 -12.2935
154
root  -1.88778 31.9752 56.9315 90.6255 14.6426 100.98
Spine  5.74206 7.24968 -0.603317
Spine1  4.25768 -13.8495 -1.06953
Neck  3.97569e-016 0 -2.38542e-015
Head  7.93318 -7.32792 29.2773
R_Clavicle  0.322058 -15.2378 0.583646
R_UpperArm  9.17229 1.17052 10.7407
R_Forearm  22.5724 -20.6394 18.2559
R_Hand  -0.651451 6.15709 -15.5371
L_Clavicle  -0.497255 16.9634 -1.77566
L_UpperArm  -4.50521 11.599 30.1448
L_Forearm  -7.07245 24.9988 32.5807
L_Hand  0.0525785 3.45906 0.812093
L_Thigh  -12.4675 -10.0289 -6.95321
L_Calf  2.89471 -3.36304 25.1775
L_Foot  2.58112 18.8894 -5.52448
L_Toe0  0.505156 0.034446 -6.1361
R_Thigh  -11.7058 -8.70406 -22.8347
R_Calf  1.31896 4.95892 15.5215
R_Foot  0.981154 5.83663 11.4343
R_Toe0  1.09482 -0.33489 -14.7987
155
root  -2.19044 32.1047 56.4937 87.6733 13.3046 97.3636
Spine  7.09885 13.8199 1.46107
Spine1  5.00367 -16.9829 -4.59694
Neck  3.97569e-016 0 -2.38542e-015
Head  8.26549 -8.06482 29.8122
R_Clavicle  0.347396 -16.3509 0.771337
R_UpperArm  6.57473 2.39869 8.0775
R_Forearm  26.6368 -22.5978 19.8499
R_Hand  -0.873659 5.62172 -17.3466
L_Clavicle  -0.622756 19.8913 -1.5557
L_UpperArm  -5.53318 8.76991 31.3844
L_Forearm  -8.53143 25.369 33.1781
L_Hand  -0.0711517 2.36591 -0.899242
L_Thigh  -10.1903 -6.82216 -3.63264
L_Calf  -0.032066 -3.14977 23.7749
L_Foot  1.58176 16.7984 -7.30128
L_Toe0  0.543975 0.033969 -6.15814
R_Thigh  -12.3363 -5.68663 -21.4919
R_Calf  -3.2741 5.83559 18.4074
R_Foot  0.86803 5.47326 11.2441
R_Toe0  -2.17154 -0.230896 -16.5819
156
root  -2.59025 32.0931 55.7836 86.0444 12.0829 93.666
Spine  8.28982 19.1434 4.74592
Spine1  5.20791 -18.2313 -6.73812
Neck  3.97569e-016 0 -2.38542e-015
Head  8.58388 -9.15179 28.6658
R_Clavicle  0.317568 -14.973 0.562806
R_UpperArm  10.5054 3.2897 4.29046
R_Forearm  25.9528 -25.6451 20.5334
R_Hand  -0.909964 5.34033 -17.6022
L_Clavicle  -0.682251 21.3098 -1.48466
L_UpperArm  -9.17231 7.08149 29.4345
L_Forearm  -8.01058 26.6789 34.936
L_Hand  -0.126192 0.722384 -2.24153
L_Thigh  -5.4423 -4.03496 1.69943
L_Calf  -5.04077 -2.63966 19.5393
L_Foot  -0.237455 16.4202 -12.5043
L_Toe0  0.129906 0.0390562 -5.92292
R_Thigh  -8.28599 -1.91706 -18.1207
R_Calf  -4.75798 5.57035 17.574
R_Foot  -0.528314 1.37786 8.90666
R_Toe0  -0.00959598 -0.280636 -15.7374
157
root  -3.03086 31.8785 55.0218 85.4767 12.1053 91.717
Spine  8.64776 19.1969 7.81966
Spine1  4.91386 -15.0246 -6.4972
Neck  3.97569e-016 0 -2.38542e-015
Head  9.36969 -10.3501 24.9019
R_Clavicle  0.221995 -11.1696 0.144984
R_UpperArm  17.9544 4.72096 -0.177466
R_Forearm  20.5649 -28.4988 20.6063
R_Hand  -0.710507 5.12546 -15.6374
L_Clavicle  -0.647704 20.2341 -1.77936
L_UpperArm  -17.103 8.31533 25.5681
L_Forearm  -5.45669 27.5916 35.8247
L_Hand  -0.13159 -0.420371 -2.94499
L_Thigh  -0.383591 -3.49833 6.8804
L_Calf  -9.40844 -1.82375 13.21
L_Foot  -1.66531 17.968 -17.3395
L_Toe0  -0.931185 0.0520894 -5.32016
R_Thigh  -4.1141 0.503926 -15.4856
R_Calf  -4.02391 4.89342 15.4138
R_Foot  -1.97378 -2.69753 8.28772
R_Toe0  2.28197 -0.369491 -15.0639
158
root  -3.42791 31.5417 54.3532 85.1176 13.0828 91.2471
Spine  7.83405 15.9977 9.02164
Spine1  4.21284 -9.36928 -2.88825
Neck  3.97569e-016 0 -2.38542e-015
Head  11.6281 -11.0995 18.2145
R_Clavicle  0.126023 -7.69523 -0.108652
R_UpperArm  20.1831 8.41394 -4.62975
R_Forearm  15.5132 -29.1178 20.7918
R_Hand  -0.383542 5.00603 -12.4158
L_Clavicle  -0.562044 18.1939 -2.24086
L_UpperArm  -23.8664 9.81292 22.48
L_Forearm  -5.75158 25.49 33.4046
L_Hand  -0.134381 -0.293442 -2.90059
L_Thigh  3.0951 -4.98725 10.5337
L_Calf  -11.3388 -0.700335 4.8238
L_Foot  -0.954207 18.8334 -15.5062
L_Toe0  0.621612 0.0330152 -6.20225
R_Thigh  -2.3969 1.6694 -14.1373
R_Calf  -3.2235 4.15145 13.0732
R_Foot  -2.72879 -4.07846 9.89896
R_Toe0  1.12148 -0.309618 -15.6659
159
root  -3.73068 31.1611 53.8044 84.6261 13.5551 90.8522
Spine  6.51769 14.0439 7.95161
Spine1  3.37644 -5.22598 3.22003
Neck  3.97569e-016 0 -2.38542e-015
Head  15.0089 -11.0358 10.2019
R_Clavicle  0.102383 -6.45799 -0.108997
R_UpperArm  14.8902 13.3926 -7.96317
R_Forearm  13.4492 -26.1975 20.6406
R_Hand  -0.172542 5.42872 -10.7597
L_Clavicle  -0.504065 16.9956 -2.47228
L_UpperArm  -27.2771 8.45339 21.7435
L_Forearm  -7.27139 21.4018 26.9127
L_Hand  -0.154961 0.570309 -2.84099
L_Thigh  3.87135 -6.88513 12.8318
L_Calf  -11.6364 0.737653 -5.73022
L_Foot  1.49256 17.3463 -7.79469
L_Toe0  0.505156 0.0344343 -6.1361
R_Thigh  -0.981647 2.50096 -12.4377
R_Calf  -3.31427 3.32684 10.4886
R_Foot  -3.15621 -4.65477 11.121
R_Toe0  0.717707 -0.293877 -15.8958
160
root  -3.97051 30.8136 53.3754 84.4637 12.8657 89.9048
Spine  5.26621 14.5245 5.39761
Spine1  2.53505 -3.47297 8.88922
Neck  3.97569e-016 0 -2.38542e-015
Head  17.4882 -10.3291 3.94469
R_Clavicle  0.129129 -6.80911 0.0324358
R_UpperArm  10.3032 16.5191 -8.09041
R_Forearm  12.5256 -20.9334 18.7831
R_Hand  -0.241996 6.82548 -12.4246
L_Clavicle  -0.476731 16.492 -2.18103
L_UpperArm  -26.8273 5.05634 22.5098
L_Forearm  -6.2887 16.318 19.7532
L_Hand  -0.211747 1.2271 -3.47752
L_Thigh  2.19334 -8.15316 13.2448
L_Calf  -12.4005 2.16516 -16.3416
L_Foot  3.04146 15.0374 -1.88328
L_Toe0  0.505156 0.0342033 -6.1361
R_Thigh  1.96189 3.36821 -9.85819
R_Calf  -3.92114 2.52662 8.01394
R_Foot  -3.83748 -6.06305 11.8258
R_Toe0  0.963268 -0.303229 -15.7554
161
root  -4.21188 30.6697 53.0687 85.4764 11.6582 88.9618
Spine  4.15439 15.1589 2.48166
Spine1  1.99895 -1.95301 11.4422
Neck  3.97569e-016 0 -2.38542e-015
Head  17.5729 -9.5949 2.26017
R_Clavicle  0.153003 -8.02398 0.0456102
R_UpperArm  13.1496 16.5231 -2.81844
R_Forearm  12.1537 -16.6042 14.3183
R_Hand  -0.586241 8.14457 -15.7222
L_Clavicle  -0.430497 15.4914 -1.58916
L_UpperArm  -25.268 2.7743 22.9988
L_Forearm  -1.85978 12.4361 14.7453
L_Hand  -0.247757 1.49397 -3.91046
L_Thigh  -0.914578 -8.70191 10.1973
L_Calf  -14.1368 3.06013 -23.2769
L_Foot  3.21131 14.1983 -0.756942
L_Toe0  0.505156 0.0338252 -6.1361
R_Thigh  5.50701 3.98248 -7.82415
R_Calf  -4.60025 2.29996 7.33913
R_Foot  -4.28487 -7.25842 11.6794
R_Toe0  1.26306 -0.313433 -15.674
162
root  -4.45256 30.8389 52.8771 88.105 10.488 88.7134
Spine  2.9858 13.8223 -0.222562
Spine1  1.79057 1.10521 10.3695
Neck  3.97569e-016 0 -2.38542e-015
Head  15.8324 -9.32235 5.68492
R_Clavicle  0.17893 -10.5612 -0.153996
R_UpperArm  14.8093 14.8753 7.30347
R_Forearm  17.5054 -13.309 11.307
R_Hand  -0.71983 7.57582 -16.6395
L_Clavicle  -0.37507 14.1014 -1.30583
L_UpperArm  -23.393 2.65533 22.9718
L_Forearm  1.56913 10.7237 12.6246
L_Hand  -0.159037 1.81291 -2.34496
L_Thigh  -4.41061 -8.57023 3.45208
L_Calf  -15.9116 3.18635 -24.3138
L_Foot  3.56506 14.8768 -0.169931
L_Toe0  0.505156 0.0334961 -6.13611
R_Thigh  8.8667 3.83824 -6.75405
R_Calf  -4.99457 2.63015 8.38133
R_Foot  -3.75536 -7.08287 9.24981
R_Toe0  1.89616 -0.375578 -14.6236
